<svg width="91" height="160" viewBox="0 0 91 160" fill="none" xmlns="http://www.w3.org/2000/svg">
<path d="M48.7111 70.2222C28.5333 64.9778 22.0444 59.5556 22.0444 51.1111C22.0444 41.4222 31.0222 34.6667 46.0444 34.6667C61.8667 34.6667 67.7333 42.2222 68.2667 53.3333H87.9111C87.2889 38.0444 77.9556 24 59.3778 19.4667V0H32.7111V19.2C15.4667 22.9333 1.6 34.1333 1.6 51.2889C1.6 71.8222 18.5778 82.0444 43.3778 88C65.6 93.3333 70.0444 101.156 70.0444 109.422C70.0444 115.556 65.6889 125.333 46.0444 125.333C27.7333 125.333 20.5333 117.156 19.5556 106.667H0C1.06667 126.133 15.6444 137.067 32.7111 140.711V160H59.3778V140.889C76.7111 137.6 90.4889 127.556 90.4889 109.333C90.4889 84.0889 68.8889 75.4667 48.7111 70.2222Z" fill="#858585"/>
</svg>
