<svg width="147" height="120" viewBox="0 0 147 120" fill="none" xmlns="http://www.w3.org/2000/svg">
<path d="M146.667 80H133.333V93.3333H146.667V80ZM146.667 106.667H133.333V120H146.667V106.667ZM146.667 53.3333H133.333V66.6667H146.667V53.3333ZM93.3333 0H80V13.3333H93.3333V0ZM146.667 26.6667H133.333V40H146.667V26.6667ZM0 120H66.6667V80H0V120ZM13.3333 26.6667H0V40H13.3333V26.6667ZM93.3333 106.667H80V120H93.3333V106.667ZM120 0H106.667V13.3333H120V0ZM146.667 0H133.333V13.3333H146.667V0ZM120 106.667H106.667V120H120V106.667ZM13.3333 53.3333H0V66.6667H13.3333V53.3333ZM66.6667 0H53.3333V13.3333H66.6667V0ZM40 0H26.6667V13.3333H40V0ZM13.3333 0H0V13.3333H13.3333V0Z" fill="#858585"/>
</svg>
