<svg width="189" height="120" viewBox="0 0 189 120" fill="none" xmlns="http://www.w3.org/2000/svg">
<path d="M128.571 51.4286C142.8 51.4286 154.2 39.9429 154.2 25.7143C154.2 11.4857 142.8 0 128.571 0C114.343 0 102.857 11.4857 102.857 25.7143C102.857 39.9429 114.343 51.4286 128.571 51.4286ZM60 51.4286C74.2286 51.4286 85.6286 39.9429 85.6286 25.7143C85.6286 11.4857 74.2286 0 60 0C45.7714 0 34.2857 11.4857 34.2857 25.7143C34.2857 39.9429 45.7714 51.4286 60 51.4286ZM60 68.5714C40.0286 68.5714 0 78.6 0 98.5714V120H120V98.5714C120 78.6 79.9714 68.5714 60 68.5714ZM128.571 68.5714C126.086 68.5714 123.257 68.7429 120.257 69C130.2 76.2 137.143 85.8857 137.143 98.5714V120H188.571V98.5714C188.571 78.6 148.543 68.5714 128.571 68.5714Z" fill="#858585"/>
</svg>
