<svg width="120" height="120" viewBox="0 0 120 120" fill="none" xmlns="http://www.w3.org/2000/svg">
<path d="M106 112V0H14V112H0V120H120V112H106ZM98 112H64V96H56V112H22V8H98V112Z" fill="#858585"/>
<path d="M44 72H36V80H44V72Z" fill="#858585"/>
<path d="M64 72H56V80H64V72Z" fill="#858585"/>
<path d="M84 72H76V80H84V72Z" fill="#858585"/>
<path d="M44 48H36V56H44V48Z" fill="#858585"/>
<path d="M64 48H56V56H64V48Z" fill="#858585"/>
<path d="M84 48H76V56H84V48Z" fill="#858585"/>
<path d="M44 24H36V32H44V24Z" fill="#858585"/>
<path d="M64 24H56V32H64V24Z" fill="#858585"/>
<path d="M84 24H76V32H84V24Z" fill="#858585"/>
</svg>
