<svg width="55" height="81" viewBox="0 0 55 81" fill="none" xmlns="http://www.w3.org/2000/svg">
<path d="M31.6357 56.5283H18.7988C18.8346 53.2699 19.1032 50.4769 19.6045 48.1494C20.1416 45.8219 21.0189 43.7272 22.2363 41.8652C23.4538 39.9674 25.1009 38.0339 27.1777 36.0645C28.8249 34.5247 30.293 33.0745 31.582 31.7139C32.9069 30.3174 33.9453 28.8672 34.6973 27.3633C35.4492 25.8236 35.8252 24.0869 35.8252 22.1533C35.8252 19.9691 35.4671 18.1429 34.751 16.6748C34.0706 15.2067 33.0501 14.0967 31.6895 13.3447C30.3646 12.557 28.6995 12.1631 26.6943 12.1631C25.0472 12.1631 23.4896 12.5033 22.0215 13.1836C20.5534 13.8639 19.3717 14.9202 18.4766 16.3525C17.5814 17.749 17.098 19.5752 17.0264 21.8311H2.79297C2.90039 17.1403 4.01042 13.2373 6.12305 10.1221C8.23568 6.97103 11.0824 4.62565 14.6631 3.08594C18.2438 1.51042 22.2542 0.722656 26.6943 0.722656C31.5999 0.722656 35.7894 1.54622 39.2627 3.19336C42.7718 4.80469 45.4395 7.16797 47.2656 10.2832C49.1276 13.3984 50.0586 17.1582 50.0586 21.5625C50.0586 24.7135 49.4499 27.5423 48.2324 30.0488C47.015 32.5195 45.4036 34.8291 43.3984 36.9775C41.3932 39.126 39.2269 41.2923 36.8994 43.4766C34.8584 45.3027 33.4798 47.2542 32.7637 49.3311C32.0475 51.4079 31.6715 53.807 31.6357 56.5283ZM17.4561 73.2324C17.4561 71.084 18.1722 69.2936 19.6045 67.8613C21.0726 66.429 23.042 65.7129 25.5127 65.7129C27.9834 65.7129 29.9349 66.429 31.3672 67.8613C32.8353 69.2936 33.5693 71.084 33.5693 73.2324C33.5693 75.3092 32.8353 77.0638 31.3672 78.4961C29.9349 79.9284 27.9834 80.6445 25.5127 80.6445C23.042 80.6445 21.0726 79.9284 19.6045 78.4961C18.1722 77.0638 17.4561 75.3092 17.4561 73.2324Z" fill="#858585"/>
</svg>
