<svg width="120" height="120" viewBox="0 0 120 120" fill="none" xmlns="http://www.w3.org/2000/svg">
<path d="M23.25 50.2C26.65 32.95 41.8 20 60 20C74.45 20 87 28.2 93.25 40.2C108.3 41.8 120 54.55 120 70C120 86.55 106.55 100 90 100H25C11.2 100 0 88.8 0 75C0 61.8 10.25 51.1 23.25 50.2ZM25 90H90C101.05 90 110 81.05 110 70C110 59.75 102.35 51.2 92.2 50.15L86.85 49.6L84.35 44.85C79.6 35.7 70.3 30 60 30C46.9 30 35.6 39.3 33.05 52.15L31.55 59.65L23.9 60.2C16.1 60.7 10 67.25 10 75C10 83.25 16.75 90 25 90ZM80 65H67.25V80H52.75V65H40L60 45L80 65Z" fill="#858585"/>
</svg>
